<svg width="156" height="156" viewBox="0 0 156 156" fill="none" xmlns="http://www.w3.org/2000/svg">
<g clip-path="url(#clip0_8_14)">
<rect width="156" height="156" rx="34" fill="#01C3F9"/>
<mask id="path-2-outside-1_8_14" maskUnits="userSpaceOnUse" x="14" y="28" width="131" height="100" fill="black">
<rect fill="white" x="14" y="28" width="131" height="100"/>
<path d="M82.7685 103.142H53.4873L48.7933 117H28.7882L57.1754 38.5441H79.3039L107.691 117H87.4625L82.7685 103.142ZM77.8511 88.3893L68.1279 59.6668L58.5165 88.3893H77.8511ZM123.036 117.894C119.684 117.894 116.927 116.925 114.766 114.988C112.68 112.977 111.637 110.518 111.637 107.612C111.637 104.632 112.68 102.136 114.766 100.124C116.927 98.1125 119.684 97.1066 123.036 97.1066C126.315 97.1066 128.997 98.1125 131.083 100.124C133.244 102.136 134.324 104.632 134.324 107.612C134.324 110.518 133.244 112.977 131.083 114.988C128.997 116.925 126.315 117.894 123.036 117.894Z"/>
</mask>
<path d="M82.7685 103.142H53.4873L48.7933 117H28.7882L57.1754 38.5441H79.3039L107.691 117H87.4625L82.7685 103.142ZM77.8511 88.3893L68.1279 59.6668L58.5165 88.3893H77.8511ZM123.036 117.894C119.684 117.894 116.927 116.925 114.766 114.988C112.68 112.977 111.637 110.518 111.637 107.612C111.637 104.632 112.68 102.136 114.766 100.124C116.927 98.1125 119.684 97.1066 123.036 97.1066C126.315 97.1066 128.997 98.1125 131.083 100.124C133.244 102.136 134.324 104.632 134.324 107.612C134.324 110.518 133.244 112.977 131.083 114.988C128.997 116.925 126.315 117.894 123.036 117.894Z" fill="#FDB44B"/>
<path d="M82.7685 103.142L92.24 99.9336L89.9395 93.1417H82.7685V103.142ZM53.4873 103.142V93.1417H46.3163L44.0158 99.9336L53.4873 103.142ZM48.7933 117V127H55.9643L58.2648 120.208L48.7933 117ZM28.7882 117L19.3848 113.598L14.5355 127H28.7882V117ZM57.1754 38.5441V28.5441H50.1591L47.772 35.1417L57.1754 38.5441ZM79.3039 38.5441L88.7073 35.1417L86.3202 28.5441H79.3039V38.5441ZM107.691 117V127H121.944L117.095 113.598L107.691 117ZM87.4625 117L77.991 120.208L80.2915 127H87.4625V117ZM77.8511 88.3893V98.3893H91.7937L87.323 85.1828L77.8511 88.3893ZM68.1279 59.6668L77.5999 56.4604L68.0731 28.3181L58.6448 56.4935L68.1279 59.6668ZM58.5165 88.3893L49.0333 85.2159L44.6251 98.3893H58.5165V88.3893ZM82.7685 93.1417H53.4873V113.142H82.7685V93.1417ZM44.0158 99.9336L39.3219 113.792L58.2648 120.208L62.9587 106.35L44.0158 99.9336ZM48.7933 107H28.7882V127H48.7933V107ZM38.1916 120.402L66.5788 41.9464L47.772 35.1417L19.3848 113.598L38.1916 120.402ZM57.1754 48.5441H79.3039V28.5441H57.1754V48.5441ZM69.9006 41.9464L98.2877 120.402L117.095 113.598L88.7073 35.1417L69.9006 41.9464ZM107.691 107H87.4625V127H107.691V107ZM96.9339 113.792L92.24 99.9336L73.2971 106.35L77.991 120.208L96.9339 113.792ZM87.323 85.1828L77.5999 56.4604L58.6559 62.8733L68.3791 91.5958L87.323 85.1828ZM58.6448 56.4935L49.0333 85.2159L67.9996 91.5626L77.611 62.8402L58.6448 56.4935ZM58.5165 98.3893H77.8511V78.3893H58.5165V98.3893ZM114.766 114.988L107.825 122.187L107.955 122.313L108.091 122.434L114.766 114.988ZM114.766 100.124L107.952 92.8052L107.888 92.8649L107.825 92.9257L114.766 100.124ZM131.083 100.124L124.142 107.323L124.205 107.383L124.269 107.443L131.083 100.124ZM131.083 114.988L137.888 122.316L137.897 122.307L131.083 114.988ZM123.036 107.894C121.74 107.894 121.485 107.582 121.442 107.543L108.091 122.434C112.368 126.269 117.628 127.894 123.036 127.894V107.894ZM121.707 107.79C121.62 107.706 121.59 107.661 121.589 107.661C121.589 107.66 121.593 107.667 121.601 107.68C121.608 107.694 121.617 107.711 121.625 107.73C121.643 107.772 121.649 107.8 121.649 107.799C121.648 107.796 121.637 107.738 121.637 107.612H101.637C101.637 113.225 103.778 118.285 107.825 122.187L121.707 107.79ZM121.637 107.612C121.637 107.452 121.651 107.366 121.656 107.339C121.66 107.314 121.66 107.327 121.646 107.361C121.631 107.396 121.616 107.42 121.612 107.426C121.608 107.431 121.632 107.395 121.707 107.323L107.825 92.9257C103.723 96.8814 101.637 102.003 101.637 107.612H121.637ZM121.58 107.443C121.637 107.391 121.843 107.107 123.036 107.107V87.1066C117.524 87.1066 112.217 88.8342 107.952 92.8052L121.58 107.443ZM123.036 107.107C123.647 107.107 123.927 107.199 123.996 107.224C124.042 107.242 124.07 107.254 124.142 107.323L138.024 92.9257C133.825 88.8765 128.536 87.1066 123.036 87.1066V107.107ZM124.269 107.443C124.357 107.525 124.385 107.566 124.382 107.561C124.377 107.555 124.357 107.525 124.337 107.477C124.316 107.43 124.31 107.4 124.311 107.403C124.312 107.409 124.324 107.473 124.324 107.612H144.324C144.324 101.886 142.112 96.7289 137.897 92.8052L124.269 107.443ZM124.324 107.612C124.324 107.716 124.315 107.752 124.318 107.733C124.32 107.725 124.324 107.709 124.331 107.686C124.338 107.663 124.348 107.638 124.359 107.613C124.37 107.587 124.381 107.566 124.391 107.549C124.4 107.533 124.406 107.525 124.405 107.526C124.404 107.527 124.368 107.577 124.269 107.669L137.897 122.307C142.053 118.438 144.324 113.344 144.324 107.612H124.324ZM124.279 107.66C124.222 107.713 124.19 107.733 124.11 107.762C124.008 107.799 123.688 107.894 123.036 107.894V127.894C128.429 127.894 133.672 126.231 137.888 122.316L124.279 107.66Z" fill="#111111" mask="url(#path-2-outside-1_8_14)"/>
</g>
<defs>
<clipPath id="clip0_8_14">
<rect width="156" height="156" fill="white"/>
</clipPath>
</defs>
</svg>
